<?xml version="1.0" standalone="no"?><!DOCTYPE svg PUBLIC "-//W3C//DTD SVG 1.1//EN" "http://www.w3.org/Graphics/SVG/1.1/DTD/svg11.dtd"><svg t="1585541569273" class="icon" viewBox="0 0 1024 1024" version="1.1" xmlns="http://www.w3.org/2000/svg" p-id="1547" xmlns:xlink="http://www.w3.org/1999/xlink" width="200" height="200"><defs><style type="text/css"></style></defs><path d="M682.666667 955.733333H511.146667a17.066667 17.066667 0 0 1-15.854934-10.752l-169.813333-426.666666a17.134933 17.134933 0 0 1 0-12.612267l169.813333-426.666667A17.066667 17.066667 0 0 1 511.146667 68.266667H682.666667a17.032533 17.032533 0 0 1 15.837866 23.432533L529.544533 512l168.942934 420.3008a17.015467 17.015467 0 0 1-1.706667 15.9232A16.981333 16.981333 0 0 1 682.666667 955.733333z m-159.931734-34.133333h134.690134l-162.0992-403.234133a17.1008 17.1008 0 0 1 0-12.731734L657.425067 102.4h-134.690134l-163.037866 409.6 163.037866 409.6z" p-id="1548"></path></svg>