<?xml version="1.0" standalone="no"?><!DOCTYPE svg PUBLIC "-//W3C//DTD SVG 1.1//EN" "http://www.w3.org/Graphics/SVG/1.1/DTD/svg11.dtd"><svg t="1585911932964" class="icon" viewBox="0 0 1024 1024" version="1.1" xmlns="http://www.w3.org/2000/svg" p-id="2309" xmlns:xlink="http://www.w3.org/1999/xlink" width="200" height="200"><defs><style type="text/css"></style></defs><path d="M998.4 819.2h-768a25.6 25.6 0 0 1 0-51.2h768a25.6 25.6 0 0 1 0 51.2zM998.4 563.2h-768a25.6 25.6 0 0 1 0-51.2h768a25.6 25.6 0 0 1 0 51.2zM998.4 307.2h-768a25.6 25.6 0 0 1 0-51.2h768a25.6 25.6 0 0 1 0 51.2zM76.8 358.4C34.4576 358.4 0 323.9424 0 281.6S34.4576 204.8 76.8 204.8 153.6 239.2576 153.6 281.6 119.1424 358.4 76.8 358.4z m0-102.4a25.6 25.6 0 1 0 0 51.2 25.6 25.6 0 0 0 0-51.2zM76.8 614.4C34.4576 614.4 0 579.9424 0 537.6S34.4576 460.8 76.8 460.8 153.6 495.2576 153.6 537.6 119.1424 614.4 76.8 614.4z m0-102.4a25.6 25.6 0 1 0 0 51.2 25.6 25.6 0 0 0 0-51.2zM76.8 870.4C34.4576 870.4 0 835.9424 0 793.6S34.4576 716.8 76.8 716.8s76.8 34.4576 76.8 76.8S119.1424 870.4 76.8 870.4z m0-102.4a25.6 25.6 0 1 0 0 51.2 25.6 25.6 0 0 0 0-51.2z" fill="" p-id="2310"></path></svg>