<?xml version="1.0" standalone="no"?><!DOCTYPE svg PUBLIC "-//W3C//DTD SVG 1.1//EN" "http://www.w3.org/Graphics/SVG/1.1/DTD/svg11.dtd"><svg t="1586061275561" class="icon" viewBox="0 0 1024 1024" version="1.1" xmlns="http://www.w3.org/2000/svg" p-id="12738" xmlns:xlink="http://www.w3.org/1999/xlink" width="200" height="200"><defs><style type="text/css"></style></defs><path d="M530.346667 174.933333a42.666667 42.666667 0 0 0-42.666667 5.12L283.733333 341.333333H128a42.666667 42.666667 0 0 0-42.666667 42.666667v256a42.666667 42.666667 0 0 0 42.666667 42.666667h155.733333l201.813334 161.28A42.666667 42.666667 0 0 0 512 853.333333a38.826667 38.826667 0 0 0 18.346667-4.266666A42.666667 42.666667 0 0 0 554.666667 810.666667V213.333333a42.666667 42.666667 0 0 0-24.32-38.4zM469.333333 721.92l-144.213333-115.2A42.666667 42.666667 0 0 0 298.666667 597.333333H170.666667v-170.666666h128a42.666667 42.666667 0 0 0 26.453333-9.386667L469.333333 302.08z m369.493334-451.413333a42.666667 42.666667 0 0 0-60.586667 60.586666 256 256 0 0 1-16.213333 377.173334 42.666667 42.666667 0 0 0 27.306666 75.093333 42.666667 42.666667 0 0 0 27.306667-9.813333 341.333333 341.333333 0 0 0 22.186667-503.04z m-120.746667 120.746666a42.666667 42.666667 0 1 0-60.586667 60.586667A85.333333 85.333333 0 0 1 682.666667 512a85.333333 85.333333 0 0 1-30.293334 65.28 42.666667 42.666667 0 0 0-5.546666 60.16 42.666667 42.666667 0 0 0 60.16 5.12A170.666667 170.666667 0 0 0 768 512a173.226667 173.226667 0 0 0-49.92-120.746667z" p-id="12739" fill="#ffffff"></path></svg>