<?xml version="1.0" standalone="no"?><!DOCTYPE svg PUBLIC "-//W3C//DTD SVG 1.1//EN" "http://www.w3.org/Graphics/SVG/1.1/DTD/svg11.dtd"><svg t="1586061294030" class="icon" viewBox="0 0 1024 1024" version="1.1" xmlns="http://www.w3.org/2000/svg" p-id="12920" xmlns:xlink="http://www.w3.org/1999/xlink" width="200" height="200"><defs><style type="text/css"></style></defs><path d="M722.346667 174.933333a42.666667 42.666667 0 0 0-42.666667 5.12L475.733333 341.333333H320a42.666667 42.666667 0 0 0-42.666667 42.666667v256a42.666667 42.666667 0 0 0 42.666667 42.666667h155.733333l201.813334 161.28a42.666667 42.666667 0 0 0 26.453333 9.386666 38.826667 38.826667 0 0 0 18.346667-4.266666 42.666667 42.666667 0 0 0 24.32-38.4V213.333333a42.666667 42.666667 0 0 0-24.32-38.4zM661.333333 721.92l-144.213333-115.2a42.666667 42.666667 0 0 0-26.453333-9.386667h-128v-170.666666h128a42.666667 42.666667 0 0 0 26.453333-9.386667l144.213333-115.2z" p-id="12921" fill="#ffffff"></path></svg>