<?xml version="1.0" standalone="no"?><!DOCTYPE svg PUBLIC "-//W3C//DTD SVG 1.1//EN" "http://www.w3.org/Graphics/SVG/1.1/DTD/svg11.dtd"><svg t="1586061317267" class="icon" viewBox="0 0 1024 1024" version="1.1" xmlns="http://www.w3.org/2000/svg" p-id="13284" xmlns:xlink="http://www.w3.org/1999/xlink" width="200" height="200"><defs><style type="text/css"></style></defs><path d="M530.346667 174.933333a42.666667 42.666667 0 0 0-42.666667 5.12L283.733333 341.333333H128a42.666667 42.666667 0 0 0-42.666667 42.666667v256a42.666667 42.666667 0 0 0 42.666667 42.666667h155.733333l201.813334 161.28A42.666667 42.666667 0 0 0 512 853.333333a38.826667 38.826667 0 0 0 18.346667-4.266666A42.666667 42.666667 0 0 0 554.666667 810.666667V213.333333a42.666667 42.666667 0 0 0-24.32-38.4zM469.333333 721.92l-144.213333-115.2A42.666667 42.666667 0 0 0 298.666667 597.333333H170.666667v-170.666666h128a42.666667 42.666667 0 0 0 26.453333-9.386667L469.333333 302.08z m176.64-547.413333a42.666667 42.666667 0 1 0-11.946666 85.333333 256 256 0 0 1 0 506.026667 42.666667 42.666667 0 0 0 5.973333 85.333333h5.973333a341.333333 341.333333 0 0 0 0-674.986667z m-19.626666 417.28a42.666667 42.666667 0 0 0 13.653333 85.333333 48.213333 48.213333 0 0 0 13.653333-2.133333 170.666667 170.666667 0 0 0 0-321.706667 42.666667 42.666667 0 0 0-27.306666 81.066667 85.333333 85.333333 0 0 1 0 159.573333z" p-id="13285" fill="#ffffff"></path></svg>