<?xml version="1.0" standalone="no"?><!DOCTYPE svg PUBLIC "-//W3C//DTD SVG 1.1//EN" "http://www.w3.org/Graphics/SVG/1.1/DTD/svg11.dtd"><svg t="1586061263800" class="icon" viewBox="0 0 1024 1024" version="1.1" xmlns="http://www.w3.org/2000/svg" p-id="12556" xmlns:xlink="http://www.w3.org/1999/xlink" width="200" height="200"><defs><style type="text/css"></style></defs><path d="M530.346667 174.933333a42.666667 42.666667 0 0 0-42.666667 5.12L283.733333 341.333333H128a42.666667 42.666667 0 0 0-42.666667 42.666667v256a42.666667 42.666667 0 0 0 42.666667 42.666667h155.733333l201.813334 161.28A42.666667 42.666667 0 0 0 512 853.333333a38.826667 38.826667 0 0 0 18.346667-4.266666A42.666667 42.666667 0 0 0 554.666667 810.666667V213.333333a42.666667 42.666667 0 0 0-24.32-38.4zM469.333333 721.92l-144.213333-115.2A42.666667 42.666667 0 0 0 298.666667 597.333333H170.666667v-170.666666h128a42.666667 42.666667 0 0 0 26.453333-9.386667L469.333333 302.08zM849.493333 512l76.8-76.373333a42.666667 42.666667 0 0 0-60.586666-60.586667l-76.373334 76.8-76.373333-76.8a42.666667 42.666667 0 0 0-60.586667 60.586667l76.8 76.373333-76.8 76.373333a42.666667 42.666667 0 0 0 0 60.586667 42.666667 42.666667 0 0 0 60.586667 0l76.373333-76.8 76.373334 76.8a42.666667 42.666667 0 0 0 60.586666 0 42.666667 42.666667 0 0 0 0-60.586667z" p-id="12557" fill="#ffffff"></path></svg>